#!OML:ASF F:\VICON\USERDATA\INSTALL\rory3\rory3.ASF
:FULLY-SPECIFIED
:DEGREES
37
root 0.5891938241600048 15.509862114977338 -17.05906542142566 29.47659790429735 2.189032606181764 -1.8883858673852894
lfemur -73.71798222606708 3.8996240631276904 -20.92465895646579
ltibia 66.43423313432652
lfoot -22.090574245868574 15.138119837504723
ltoes -16.71307777576795
rfemur -72.20890960524528 -0.908234196394694 20.9493411424177
rtibia 65.58876655061238
rfoot -25.42194840970027 -11.853193932600274
rtoes -2.710201095677661
lowerback 24.34551771401507 0.02897560895704193 0.12102454863677314
upperback 3.8596924116459945 0.14273337135116954 2.8524048798792947
thorax -9.166208950966373 0.07105509958669387 2.7733494400425904
lowerneck -19.22138591998941 -0.8764788145833824 -2.703005666743132
upperneck -8.334936228275497 -0.37513592902329895 -0.6999146594677654
head 0.6254070219511609 -0.20377453918480648 0.2469425808249407
lclavicle 1.8651362702064328e-16 -2.353677968647104e-15
lhumerus -36.93356143341657 -3.089416654814006 79.25675405023945
lradius 23.78865639461875
lwrist 13.532279743567589
lhand -26.67170922540136 -6.376264042768223
lfingers 7.12502
lthumb -0.123451583306462 23.69603489985446
rclavicle 1.8577479217606158e-16 -2.3554975303383718e-15
rhumerus -35.11138121370719 -17.30967553136117 -67.64750140478813
rradius 27.37735758440934
rwrist 29.191186058478216
rhand -17.054642928461217 -23.984341476618077
rfingers 7.12502
rthumb 9.136184297240675 -53.81303956155696
38
root 0.5404441883629052 15.113576844794201 -17.365564735099152 33.42816655182653 2.693724062529643 -1.66964666791596
lfemur -83.0012824852304 3.0604625968406296 -20.932321368321944
ltibia 73.20268088975945
lfoot -22.68006316962621 16.706481348867573
ltoes -16.81375563137123
rfemur -80.06315416813756 -0.5804108945372337 21.169812527731224
rtibia 71.0477502053825
rfoot -26.915847485153684 -14.132613500074225
rtoes -2.2798609938642347
lowerback 27.416630941151627 0.1528403278048598 -0.10099487473240687
upperback 3.598667748414994 0.28189531113668803 2.967257978304467
thorax -10.96738849370654 0.14497420717672554 2.889656148970417
lowerneck -20.13993681590192 -1.1864817524100628 -2.8587046073161346
upperneck -10.70737938943759 -0.6572992783966333 -0.7221895681300525
head 0.0757954493035724 -0.3532174005433516 0.25250545653349465
lclavicle 1.8652075072748638e-16 -2.3536659467324724e-15
lhumerus -40.2741078686162 -1.1286632627208584 76.80853573344619
lradius 21.631414859334143
lwrist 11.510279108330044
lhand -25.93771455747623 -6.219527441132496
lfingers 7.12502
lthumb 0.5531939063448938 23.866103377557938
rclavicle 1.8576858274617942e-16 -2.3555078045817873e-15
rhumerus -37.21348953782811 -18.34475315126295 -65.88260170618311
rradius 26.46756834213695
rwrist 30.207988214628124
rhand -16.432783192811637 -23.816956191342474
rfingers 7.12502
rthumb 9.7309341909269 -53.640754078282185
39
root 0.48413368448329797 14.73555414935242 -17.51927935288124 36.26776026805229 3.0366590421657778 -1.5131421801019385
lfemur -90.74203319905465 2.8546869832494464 -20.935835157351715
ltibia 79.64761449052628
lfoot -22.91694815707041 18.018307312669993
ltoes -16.474397296999115
rfemur -86.53466329177635 -0.27028275342206065 21.420707492375865
rtibia 76.34169109565983
rfoot -28.183478952200048 -16.11575723935464
rtoes -1.9504398344191216
lowerback 30.62098176908895 0.35478078796863055 -0.29366318563738414
upperback 3.3427555683076733 0.5454870486014547 3.0963906840379165
thorax -12.91003264115491 0.28405379130583874 2.954425644647733
lowerneck -21.114972252739733 -1.5343416157187868 -3.089056775873897
upperneck -12.91728475701001 -0.9720064598881979 -0.6969853351400923
head -0.43432905546394895 -0.5211183647758418 0.26793562933977566
lclavicle 1.8639763273066e-16 -2.353867813302062e-15
lhumerus -43.231165126351634 1.4577375033488185 73.76671458853176
lradius 18.92416667435833
lwrist 8.117087996640455
lhand -25.10465238424152 -5.981869034482565
lfingers 7.12502
lthumb 1.3608092308758457 24.083153701983942
rclavicle 1.8569484608413115e-16 -2.355625437637157e-15
rhumerus -38.71857455332052 -19.433729464929215 -64.55014817338508
rradius 25.412576888521517
rwrist 31.52788263272705
rhand -15.990607516808977 -23.636737532343506
rfingers 7.12502
rthumb 10.13420840571912 -53.48974480084909
40
root 0.43527702760187365 14.439470835239051 -17.506277990229858 37.183365688592446 3.200034352823365 -1.7006894547907339
lfemur -95.19487775190979 3.533498484140188 -20.920386007819822
ltibia 85.1419291779423
lfoot -23.14005910230412 18.99209848450321
ltoes -15.793769625310869
rfemur -90.02169211486614 -0.12318481322105868 21.93681658865817
rtibia 80.67055077938073
rfoot -29.246015202548993 -17.71235213892224
rtoes -2.1428713057688054
lowerback 33.57477328089008 0.6379464463007436 -0.35697361604834543
upperback 3.1563710763943336 0.9675279632778582 3.266075463921979
thorax -14.853403843181473 0.4956262030763295 2.933249204664553
lowerneck -22.036231616126233 -1.8568031326306085 -3.358873377807339
upperneck -14.499187477129206 -1.2593604813012884 -0.6271639134014679
head -0.8353687072996641 -0.6711773457757999 0.28603033375265235
lclavicle 1.861479189058078e-16 -2.354274336561048e-15
lhumerus -45.22255983204281 4.254900871213904 70.68687705061174
lradius 15.761729629494688
lwrist 2.962979342781631
lhand -24.322432216383785 -5.7570853040299745
lfingers 7.12502
lthumb 2.165075289401776 24.29711645686347
rclavicle 1.856982518269731e-16 -2.3556205898048757e-15
rhumerus -39.27421296594243 -20.457759515666893 -63.80415875168795
rradius 24.276226282790685
rwrist 33.23554810352475
rhand -15.850827005413738 -23.44503402335454
rfingers 7.12502
rthumb 10.288699734993088 -53.340374623084784
